<svg width="55" height="55" viewBox="0 0 55 55" fill="none" xmlns="http://www.w3.org/2000/svg">
<path d="M39.9688 43.8891L33.7245 44.0833C31.9993 43.9835 30.0168 44.0149 27.9003 44.0765C25.7783 44.1381 23.778 44.2311 22.0309 44.4322L15.6238 44.621V45.9222C15.6238 45.9222 15.6238 45.9222 15.6238 45.9263C15.6238 46.7567 21.1566 47.2575 27.9222 47.0481C34.6248 46.8402 40.0003 45.9687 39.988 45.1519C39.988 45.1491 39.988 45.1026 39.988 45.1026L39.9688 43.8904V43.8891Z" fill="#CCDFF7"/>
<path d="M39.9703 43.9042C39.9826 44.7197 34.6112 45.5433 27.9141 45.7444C21.154 45.9483 15.6252 45.4407 15.6252 44.6116C15.6252 43.7825 21.143 42.9575 27.8908 42.7687C34.5742 42.5812 39.958 43.0902 39.9703 43.9042Z" fill="#99C5FF"/>
<path opacity="0.5" d="M32.1033 24.7035L29.0085 27.1388L32.1676 29.4893C35.6947 32.1093 37.7907 36.2576 37.855 40.7287L37.8988 43.792C37.8988 43.8495 37.8481 43.8987 37.762 43.9562L28.2218 43.7318L27.5787 43.7496L17.8935 44.5322C17.8033 44.4788 17.7745 44.4309 17.7745 44.3735L17.7704 41.265C17.7636 36.7296 19.8445 32.4349 23.3908 29.6521L26.5184 27.1935L23.3607 24.8375C19.8117 22.2025 17.7389 18.0583 17.7335 13.6556L17.7294 10.4979L27.3448 10.9056L27.9782 10.9015L37.4227 10.3952L37.4664 13.5092C37.528 17.849 35.551 21.9904 32.1046 24.7035H32.1033Z" fill="#383A42"/>
<path d="M37.8853 43.7906C37.8853 43.8481 37.8415 43.9055 37.7539 43.963C36.9823 44.472 32.8751 44.9645 27.8881 45.1123C22.8656 45.2614 18.6695 45.0096 17.8691 44.5404C17.7788 44.487 17.7323 44.4323 17.7323 44.3734C17.7323 43.7988 22.2896 43.2064 27.8717 43.0491C33.4114 42.8931 37.8771 43.2256 37.8853 43.7906Z" fill="#383A42"/>
<path d="M28.0561 34.5596L27.5417 34.5719L27.4774 26.2343L27.9905 26.2261L28.0561 34.5596Z" fill="#FFAE43"/>
<path d="M27.7224 21.3295L21.7874 21.4062L22.0966 21.9192C22.0966 21.9192 24.302 25.0756 27.7648 26.7707C31.1839 24.9688 33.3114 21.7728 33.3114 21.7728L33.6069 21.2543L27.7211 21.3295H27.7224Z" fill="#FFBE69"/>
<path d="M33.6069 21.1558C33.611 21.4664 30.9841 21.7537 27.7265 21.7961C24.4539 21.8399 21.7887 21.621 21.7874 21.3077C21.7874 20.9944 24.4471 20.7084 27.717 20.6674C30.9718 20.6277 33.6028 20.8466 33.6069 21.1572V21.1558Z" fill="#FFDAA9"/>
<path d="M27.7845 33.8926V33.8906C27.7845 33.8906 27.7885 33.8906 27.7845 33.8926Z" fill="#E89E3D"/>
<path d="M36.1187 43.8371C33.184 44.4925 28.6102 44.6949 27.9439 44.7141C27.9439 44.7141 27.9002 44.7141 27.8701 44.7168C27.84 44.7168 27.7962 44.7196 27.7962 44.7196C27.4418 44.7305 25.9779 44.7538 24.2321 44.7018C22.6929 44.6539 20.9362 44.5485 19.5311 44.3201C19.5284 44.3201 19.538 44.3091 19.538 44.3091V43.9424C19.6009 42.8561 19.761 39.7189 20.3082 39.0417C20.9595 38.2359 27.5704 34.0438 27.7893 33.8961C28.011 34.0329 34.6192 37.8979 35.2691 38.6641C35.4442 38.8693 35.5851 39.3304 35.6987 39.8886C35.8286 40.5234 35.9217 41.2937 35.986 41.9846C36.0818 42.9957 36.1173 43.8385 36.1173 43.8385L36.1187 43.8371Z" fill="#FFAE43"/>
<path d="M39.4463 10.4007L33.3334 10.4377C31.645 10.3036 29.7036 10.2844 27.6336 10.2954C25.5567 10.3063 23.6003 10.3488 21.8914 10.5006L15.6239 10.5348V11.7292C15.6239 11.7292 15.6239 11.7511 15.6239 11.7539C15.6239 12.5488 21.0363 13.1644 27.6555 13.1179C34.2144 13.0714 39.4764 12.3969 39.4641 11.6143C39.4641 11.6116 39.4641 11.6034 39.4641 11.6034L39.4449 10.4021L39.4463 10.4007Z" fill="#CCDFF7"/>
<path d="M39.4479 10.3924C39.4602 11.1723 34.2023 11.8386 27.6488 11.8796C21.0338 11.9207 15.6268 11.3105 15.6268 10.5156C15.6268 9.72067 21.0242 9.05848 27.627 9.03111C34.1681 9.00375 39.4369 9.61395 39.4492 10.3924H39.4479Z" fill="#99C5FF"/>
<path style="mix-blend-mode:multiply" opacity="0.3" d="M36.1187 43.8371C33.184 44.4925 28.6102 44.695 27.9439 44.7141C27.9439 44.7141 27.9002 44.7141 27.8701 44.7169C27.84 44.7169 27.7962 44.7196 27.7962 44.7196C27.4418 44.7305 25.9779 44.7538 24.2321 44.7018C22.6929 44.6539 20.9362 44.5486 19.5311 44.3201C19.5284 44.3201 19.538 44.3091 19.538 44.3091V44.3064C19.538 44.2873 19.527 44.1545 19.538 43.9411C21.1907 43.9425 24.6275 43.8221 26.1188 42.8534C28.1068 41.5619 29.765 41.4784 31.939 41.83C33.723 42.1187 35.0132 41.1213 35.7 39.8873C35.83 40.5221 35.923 41.2923 35.9887 41.9833C36.0845 42.9943 36.1201 43.8371 36.1201 43.8371H36.1187Z" fill="#FFBE69"/>
</svg>
