<svg width="88" height="114" viewBox="0 0 88 114" fill="none" xmlns="http://www.w3.org/2000/svg">
<path d="M72.9156 8.41394C72.1534 8.41394 71.5346 9.0126 71.5346 9.7496C71.5346 10.4866 70.9159 11.0853 70.1537 11.0853C69.3915 11.0853 68.7728 10.4866 68.7728 9.7496C68.7728 9.0126 68.154 8.41394 67.3918 8.41394C66.6297 8.41394 66.0109 9.0126 66.0109 9.7496C66.0109 10.4866 65.3921 11.0853 64.63 11.0853C63.8678 11.0853 63.249 10.4866 63.249 9.7496C63.249 9.0126 62.6302 8.41394 61.8681 8.41394C61.1059 8.41394 60.4871 9.0126 60.4871 9.7496C60.4871 10.4866 59.8684 11.0853 59.1062 11.0853C58.3441 11.0853 57.7253 10.4866 57.7253 9.7496C57.7253 9.0126 57.1065 8.41394 56.3443 8.41394C55.5822 8.41394 54.9634 9.0126 54.9634 9.7496C54.9634 10.4866 54.3446 11.0853 53.5825 11.0853C53.5825 11.0853 53.5774 11.0853 53.5749 11.0853C53.5749 11.0853 53.5699 11.0853 53.5674 11.0853C52.8052 11.0853 52.1864 10.4866 52.1864 9.7496C52.1864 9.0126 51.5677 8.41394 50.8055 8.41394C50.0433 8.41394 49.4246 9.0126 49.4246 9.7496C49.4246 10.4866 48.8058 11.0853 48.0436 11.0853C47.2815 11.0853 46.6627 10.4866 46.6627 9.7496C46.6627 9.0126 46.0439 8.41394 45.2818 8.41394C44.5196 8.41394 43.9008 9.0126 43.9008 9.7496C43.9008 10.4866 43.282 11.0853 42.5199 11.0853C41.7577 11.0853 41.1389 10.4866 41.1389 9.7496C41.1389 9.0126 40.5202 8.41394 39.758 8.41394C38.9958 8.41394 38.3771 9.0126 38.3771 9.7496C38.3771 10.4866 37.7583 11.0853 36.9961 11.0853C36.234 11.0853 35.6152 10.4866 35.6152 9.7496C35.6152 9.0126 34.9964 8.41394 34.2343 8.41394C33.4721 8.41394 32.8533 9.0126 32.8533 9.7496C32.8533 10.4866 32.2345 11.0853 31.4724 11.0853C30.7102 11.0853 30.0914 10.4866 30.0914 9.7496C30.0914 9.0126 29.4727 8.41394 28.7105 8.41394C27.9484 8.41394 27.3296 9.0126 27.3296 9.7496C27.3296 10.4866 26.7108 11.0853 25.9486 11.0853C25.1865 11.0853 24.5677 10.4866 24.5677 9.7496C24.5677 9.0126 23.9489 8.41394 23.1868 8.41394C22.4246 8.41394 21.8058 9.0126 21.8058 9.7496C21.8058 10.4866 21.187 11.0853 20.4249 11.0853C19.6627 11.0853 19.044 10.4866 19.044 9.7496C19.044 9.0126 18.4252 8.41394 17.663 8.41394C16.9009 8.41394 16.3047 8.99499 16.2871 9.7169V101.067C16.3072 101.789 16.9134 102.37 17.663 102.37C18.4126 102.37 19.044 101.772 19.044 101.035C19.044 100.298 19.6627 99.6991 20.4249 99.6991C21.187 99.6991 21.8058 100.298 21.8058 101.035C21.8058 101.772 22.4246 102.37 23.1868 102.37C23.9489 102.37 24.5677 101.772 24.5677 101.035C24.5677 100.298 25.1865 99.6991 25.9486 99.6991C26.7108 99.6991 27.3296 100.298 27.3296 101.035C27.3296 101.772 27.9484 102.37 28.7105 102.37C29.4727 102.37 30.0914 101.772 30.0914 101.035C30.0914 100.298 30.7102 99.6991 31.4724 99.6991C32.2345 99.6991 32.8533 100.298 32.8533 101.035C32.8533 101.772 33.4721 102.37 34.2343 102.37C34.9964 102.37 35.6152 101.772 35.6152 101.035C35.6152 100.298 36.234 99.6991 36.9961 99.6991C36.9961 99.6991 37.0012 99.6991 37.0037 99.6991C37.0062 99.6991 37.0087 99.6991 37.0112 99.6991C37.7734 99.6991 38.3922 100.298 38.3922 101.035C38.3922 101.772 39.0109 102.37 39.7731 102.37C40.5353 102.37 41.154 101.772 41.154 101.035C41.154 100.298 41.7728 99.6991 42.535 99.6991C43.2971 99.6991 43.9159 100.298 43.9159 101.035C43.9159 101.772 44.5347 102.37 45.2968 102.37C46.059 102.37 46.6778 101.772 46.6778 101.035C46.6778 100.298 47.2966 99.6991 48.0587 99.6991C48.8209 99.6991 49.4397 100.298 49.4397 101.035C49.4397 101.772 50.0584 102.37 50.8206 102.37C51.5827 102.37 52.2015 101.772 52.2015 101.035C52.2015 100.298 52.8203 99.6991 53.5825 99.6991C54.3446 99.6991 54.9634 100.298 54.9634 101.035C54.9634 101.772 55.5822 102.37 56.3443 102.37C57.1065 102.37 57.7253 101.772 57.7253 101.035C57.7253 100.298 58.3441 99.6991 59.1062 99.6991C59.8684 99.6991 60.4871 100.298 60.4871 101.035C60.4871 101.772 61.1059 102.37 61.8681 102.37C62.6302 102.37 63.249 101.772 63.249 101.035C63.249 100.298 63.8678 99.6991 64.63 99.6991C65.3921 99.6991 66.0109 100.298 66.0109 101.035C66.0109 101.772 66.6297 102.37 67.3918 102.37C68.154 102.37 68.7728 101.772 68.7728 101.035C68.7728 100.298 69.3915 99.6991 70.1537 99.6991C70.9159 99.6991 71.5346 100.298 71.5346 101.035C71.5346 101.772 72.1534 102.37 72.9156 102.37C73.6777 102.37 74.2739 101.789 74.2915 101.067V9.7169C74.2714 8.99499 73.6652 8.41394 72.9156 8.41394Z" fill="#25272C"/>
<path d="M74.2915 14.476H16.3047V49.8747H74.2915V14.476Z" fill="#25272C"/>
<path d="M69.8919 26.4742H20.0977V26.8289H69.8919V26.4742Z" fill="#B7B8BC"/>
<path d="M69.8919 27.8828H20.0977V28.5896H69.8919V27.8828Z" fill="#B7B8BC"/>
<path d="M69.8919 29.6461H20.0977V30.0008H69.8919V29.6461Z" fill="#B7B8BC"/>
<path d="M37.2248 11.0877C37.9668 11.0877 38.5705 10.489 38.5705 9.75204C38.5705 9.01504 39.1339 8.45663 39.8433 8.4189C39.8181 8.4189 39.7955 8.41638 39.7703 8.41638C39.0082 8.41638 38.3894 9.01504 38.3894 9.75204C38.3894 10.489 37.8285 11.0298 37.1191 11.0827C37.1544 11.0852 37.1896 11.0877 37.2248 11.0877Z" fill="#25272C"/>
<path d="M42.6026 11.0877C43.3446 11.0877 43.9483 10.489 43.9483 9.75204C43.9483 9.01504 44.5495 8.41638 45.2915 8.41638C44.5294 8.41638 43.9106 9.01504 43.9106 9.75204C43.9106 10.489 43.3119 11.0676 42.5674 11.0877C42.58 11.0877 42.59 11.0877 42.6026 11.0877Z" fill="#25272C"/>
<path d="M31.8445 11.0877C32.5866 11.0877 33.1903 10.489 33.1903 9.75204C33.1903 9.06032 33.716 8.49436 34.3926 8.42393C34.3448 8.4189 34.297 8.41638 34.2467 8.41638C33.4846 8.41638 32.8658 9.01504 32.8658 9.75204C32.8658 10.4312 32.3426 10.9896 31.6685 11.0751C31.7263 11.0827 31.7867 11.0877 31.8445 11.0877Z" fill="#25272C"/>
<path d="M26.4668 11.0877C27.2088 11.0877 27.8125 10.489 27.8125 9.75204C27.8125 9.08547 28.303 8.5346 28.9444 8.43399C28.874 8.42393 28.8011 8.41638 28.7256 8.41638C27.9634 8.41638 27.3447 9.01504 27.3447 9.75204C27.3447 10.406 26.8592 10.9494 26.2178 11.0651C26.2983 11.0802 26.3813 11.0877 26.4668 11.0877Z" fill="#25272C"/>
<path d="M21.089 11.0877C21.831 11.0877 22.4347 10.489 22.4347 9.75204C22.4347 9.11062 22.89 8.57485 23.4962 8.44657C23.4031 8.42644 23.305 8.41638 23.2044 8.41638C22.4423 8.41638 21.8235 9.01504 21.8235 9.75204C21.8235 10.3809 21.3757 10.9066 20.7695 11.05C20.8727 11.0751 20.9783 11.0902 21.089 11.0902V11.0877Z" fill="#25272C"/>
<path d="M52.0125 9.7496C52.0125 10.4866 52.6137 11.0853 53.3582 11.0853C53.3582 11.0853 53.3633 11.0853 53.3658 11.0853C53.3658 11.0853 53.3708 11.0853 53.3733 11.0853C53.406 11.0853 53.4387 11.0827 53.4714 11.0802C52.7571 11.0299 52.1936 10.4539 52.1936 9.7496C52.1936 9.0453 51.5748 8.41394 50.8127 8.41394C50.7875 8.41394 50.7649 8.41394 50.7397 8.41646C51.4491 8.45419 52.0125 9.03524 52.0125 9.7496Z" fill="#25272C"/>
<path d="M17.0593 101.067V9.7169C17.0744 9.11573 17.4869 8.61517 18.0453 8.46173C17.9296 8.43155 17.8089 8.41394 17.6806 8.41394C16.931 8.41394 16.3223 8.99499 16.3047 9.7169V101.067C16.3248 101.789 16.931 102.37 17.6806 102.37C17.8064 102.37 17.9271 102.353 18.0453 102.323C17.4869 102.172 17.0744 101.669 17.0593 101.067Z" fill="#25272C"/>
<path d="M68.1616 9.74955C68.1616 10.4866 68.7627 11.0852 69.5073 11.0852C69.618 11.0852 69.7236 11.0701 69.8268 11.045C69.2231 10.9016 68.7728 10.3759 68.7728 9.74704C68.7728 9.01003 68.154 8.41138 67.3919 8.41138C67.2913 8.41138 67.1957 8.42144 67.1001 8.44156C67.7063 8.56985 68.1616 9.10562 68.1616 9.74704V9.74955Z" fill="#25272C"/>
<path d="M62.7833 9.7496C62.7833 10.4866 63.3845 11.0853 64.129 11.0853C64.2145 11.0853 64.2975 11.0777 64.378 11.0626C63.7366 10.9469 63.2511 10.4036 63.2511 9.7496C63.2511 9.0126 62.6324 8.41394 61.8702 8.41394C61.7947 8.41394 61.7243 8.42149 61.6514 8.43155C62.2928 8.53216 62.7833 9.08303 62.7833 9.7496Z" fill="#25272C"/>
<path d="M57.4055 9.7496C57.4055 10.4866 58.0066 11.0853 58.7512 11.0853C58.8116 11.0853 58.8694 11.0802 58.9273 11.0727C58.2506 10.9872 57.73 10.4262 57.73 9.7496C57.73 9.0126 57.1112 8.41394 56.349 8.41394C56.2987 8.41394 56.2509 8.41646 56.2031 8.42149C56.8798 8.49192 57.4055 9.06039 57.4055 9.7496Z" fill="#25272C"/>
<path d="M46.635 9.7496C46.635 10.4866 47.2362 11.0853 47.9807 11.0853C47.9933 11.0853 48.0033 11.0853 48.0159 11.0853C47.2714 11.0677 46.6727 10.4765 46.6727 9.7496C46.6727 9.02266 46.059 8.41646 45.2993 8.41394C46.0388 8.41897 46.6375 9.01511 46.6375 9.7496H46.635Z" fill="#25272C"/>
<path d="M58.7512 99.6991C58.0092 99.6991 57.4055 100.298 57.4055 101.035C57.4055 101.726 56.8798 102.292 56.2031 102.363C56.2509 102.368 56.2987 102.37 56.349 102.37C57.1112 102.37 57.73 101.772 57.73 101.035C57.73 100.356 58.2532 99.7972 58.9273 99.7117C58.8694 99.7041 58.809 99.6991 58.7512 99.6991Z" fill="#25272C"/>
<path d="M53.3734 99.6991C52.6313 99.6991 52.0277 100.298 52.0277 101.035C52.0277 101.772 51.4642 102.33 50.7549 102.368C50.78 102.368 50.8027 102.37 50.8278 102.37C51.59 102.37 52.2088 101.772 52.2088 101.035C52.2088 100.298 52.7697 99.757 53.479 99.7041C53.4438 99.7016 53.4086 99.6991 53.3734 99.6991Z" fill="#25272C"/>
<path d="M64.129 99.6991C63.387 99.6991 62.7833 100.298 62.7833 101.035C62.7833 101.701 62.2928 102.252 61.6514 102.353C61.7218 102.363 61.7947 102.37 61.8702 102.37C62.6324 102.37 63.2511 101.772 63.2511 101.035C63.2511 100.381 63.7366 99.8374 64.378 99.7217C64.2975 99.7066 64.2145 99.6991 64.129 99.6991Z" fill="#25272C"/>
<path d="M72.9155 8.41394C72.7897 8.41394 72.669 8.43155 72.5508 8.46173C73.1092 8.61265 73.5217 9.11573 73.5368 9.7169V101.067C73.5217 101.669 73.1092 102.169 72.5508 102.323C72.6665 102.353 72.7872 102.37 72.9155 102.37C73.6651 102.37 74.2738 101.789 74.2914 101.067V9.7169C74.2713 8.99499 73.6651 8.41394 72.9155 8.41394Z" fill="#25272C"/>
<path d="M69.5073 99.699C68.7653 99.699 68.1616 100.298 68.1616 101.035C68.1616 101.676 67.7063 102.212 67.1001 102.34C67.1932 102.36 67.2913 102.37 67.3919 102.37C68.154 102.37 68.7728 101.772 68.7728 101.035C68.7728 100.406 69.2206 99.8802 69.8268 99.7368C69.7236 99.7116 69.618 99.6965 69.5073 99.6965V99.699Z" fill="#25272C"/>
<path d="M38.5834 101.035C38.5834 100.298 37.9823 99.6991 37.2377 99.6991C37.2377 99.6991 37.2327 99.6991 37.2302 99.6991C37.2302 99.6991 37.2251 99.6991 37.2226 99.6991C37.1899 99.6991 37.1572 99.7016 37.1245 99.7041C37.8389 99.7544 38.4023 100.33 38.4023 101.035C38.4023 101.739 39.0211 102.37 39.7833 102.37C39.8084 102.37 39.831 102.37 39.8562 102.368C39.1469 102.33 38.5834 101.749 38.5834 101.035Z" fill="#25272C"/>
<path d="M33.1903 101.035C33.1903 100.298 32.5891 99.6991 31.8445 99.6991C31.7842 99.6991 31.7263 99.7041 31.6685 99.7117C32.3451 99.7972 32.8658 100.358 32.8658 101.035C32.8658 101.772 33.4846 102.37 34.2467 102.37C34.297 102.37 34.3448 102.368 34.3926 102.363C33.716 102.292 33.1903 101.724 33.1903 101.035Z" fill="#25272C"/>
<path d="M27.8125 101.035C27.8125 100.298 27.2113 99.6991 26.4668 99.6991C26.3813 99.6991 26.2983 99.7066 26.2178 99.7217C26.8592 99.8374 27.3447 100.381 27.3447 101.035C27.3447 101.772 27.9634 102.37 28.7256 102.37C28.8011 102.37 28.8715 102.363 28.9444 102.353C28.303 102.252 27.8125 101.701 27.8125 101.035Z" fill="#25272C"/>
<path d="M22.4347 101.035C22.4347 100.298 21.8335 99.6991 21.089 99.6991C20.9783 99.6991 20.8727 99.7142 20.7695 99.7393C21.3732 99.8827 21.8235 100.408 21.8235 101.037C21.8235 101.774 22.4423 102.373 23.2044 102.373C23.305 102.373 23.4006 102.363 23.4962 102.343C22.89 102.214 22.4347 101.679 22.4347 101.037V101.035Z" fill="#25272C"/>
<path d="M43.961 101.035C43.961 100.298 43.3598 99.6991 42.6153 99.6991C42.6027 99.6991 42.5927 99.6991 42.5801 99.6991C43.3246 99.7167 43.9233 100.308 43.9233 101.035C43.9233 101.762 44.537 102.368 45.2967 102.37C44.5572 102.365 43.9585 101.769 43.9585 101.035H43.961Z" fill="#25272C"/>
<path d="M47.9931 99.6991C47.2511 99.6991 46.6474 100.298 46.6474 101.035C46.6474 101.772 46.0462 102.37 45.3042 102.37C46.0664 102.37 46.6851 101.772 46.6851 101.035C46.6851 100.298 47.2838 99.7192 48.0283 99.6991C48.0158 99.6991 48.0057 99.6991 47.9931 99.6991Z" fill="#25272C"/>
<path d="M58.9124 17.5648H32.7098C32.1347 17.5648 31.6685 18.0311 31.6685 18.6062C31.6685 19.1813 32.1347 19.6475 32.7098 19.6475H58.9124C59.4875 19.6475 59.9538 19.1813 59.9538 18.6062C59.9538 18.0311 59.4875 17.5648 58.9124 17.5648Z" fill="#B7B8BC"/>
<path d="M43.3223 34.3474H20.7695V35.3309H43.3223V34.3474Z" fill="#B7B8BC"/>
<path d="M63.3896 22.5377H27.2061V23.5212H63.3896V22.5377Z" fill="#B7B8BC"/>
<path d="M43.3223 38.0978H20.7695V39.0813H43.3223V38.0978Z" fill="#B7B8BC"/>
<path d="M43.3223 42.4091H20.7695V43.3926H43.3223V42.4091Z" fill="#B7B8BC"/>
<path d="M43.3223 46.157H20.7695V47.1405H43.3223V46.157Z" fill="#B7B8BC"/>
<path d="M43.3223 49.9075H20.7695V50.891H43.3223V49.9075Z" fill="#B7B8BC"/>
<path d="M43.3223 53.6553H20.7695V54.6388H43.3223V53.6553Z" fill="#B7B8BC"/>
<path d="M69.2206 34.3474H61.6519V35.3309H69.2206V34.3474Z" fill="#B7B8BC"/>
<path d="M69.2206 38.0978H61.6519V39.0813H69.2206V38.0978Z" fill="#B7B8BC"/>
<path d="M69.2206 42.4091H61.6519V43.3926H69.2206V42.4091Z" fill="#B7B8BC"/>
<path d="M69.2206 46.157H61.6519V47.1405H69.2206V46.157Z" fill="#B7B8BC"/>
<path d="M69.2206 49.9075H61.6519V50.891H69.2206V49.9075Z" fill="#B7B8BC"/>
<path d="M69.2206 53.6553H61.6519V54.6388H69.2206V53.6553Z" fill="#B7B8BC"/>
<path d="M43.3223 63.3546H20.7695V64.3381H43.3223V63.3546Z" fill="#B7B8BC"/>
<path d="M69.2206 63.3546H61.6519V64.3381H69.2206V63.3546Z" fill="#B7B8BC"/>
<path d="M69.2205 72.0929H20.7695V73.0764H69.2205V72.0929Z" fill="#B7B8BC"/>
<path d="M69.2205 75.6748H20.7695V76.6583H69.2205V75.6748Z" fill="#B7B8BC"/>
<path d="M69.2205 79.2593H20.7695V80.2428H69.2205V79.2593Z" fill="#B7B8BC"/>
<circle cx="72.3043" cy="14.3044" r="10.1739" fill="#FFE6C5"/>
<mask id="mask0_5_12987" style="mask-type:alpha" maskUnits="userSpaceOnUse" x="61" y="3" width="23" height="23">
<rect x="61" y="3" width="22.6087" height="22.6087" fill="#D9D9D9"/>
</mask>
<g mask="url(#mask0_5_12987)">
<path d="M71.3389 23.6776C70.1456 23.552 69.0348 23.2184 68.0064 22.6767C66.9781 22.1351 66.0871 21.4442 65.3334 20.6043C64.5798 19.7643 63.9871 18.8026 63.5554 17.7193C63.1236 16.636 62.9077 15.4898 62.9077 14.2809C62.9077 11.8473 63.7124 9.73953 65.3217 7.95752C66.931 6.17552 68.9446 5.15106 71.3624 4.88416V6.76821C69.4627 7.03512 67.8926 7.87902 66.6523 9.29992C65.4119 10.7208 64.7918 12.3811 64.7918 14.2809C64.7918 16.1807 65.4119 17.841 66.6523 19.2619C67.8926 20.6828 69.4548 21.5267 71.3389 21.7936V23.6776ZM72.2809 19.0146L67.5472 14.2573L68.8896 12.915L71.3389 15.3642V9.5943H73.2229V15.3642L75.6487 12.9385L76.991 14.3044L72.2809 19.0146ZM73.2229 23.6776V21.7936C73.8981 21.6994 74.5457 21.5188 75.1659 21.2519C75.786 20.985 76.363 20.6474 76.8968 20.2392L78.2628 21.6052C77.5249 22.1861 76.732 22.6532 75.8842 23.0064C75.0363 23.3597 74.1493 23.5834 73.2229 23.6776ZM76.9439 8.32256C76.3944 7.91435 75.8096 7.57679 75.1894 7.30988C74.5692 7.04297 73.9216 6.86242 73.2465 6.76821V4.88416C74.1728 4.97836 75.0599 5.20209 75.9077 5.55535C76.7555 5.90861 77.5406 6.3757 78.2628 6.95662L76.9439 8.32256ZM79.5816 20.2392L78.2628 18.8968C78.671 18.363 79.0007 17.786 79.2519 17.1659C79.5031 16.5457 79.6758 15.898 79.77 15.2229H81.7012C81.5756 16.1493 81.3401 17.0403 80.9947 17.8959C80.6493 18.7516 80.1782 19.5327 79.5816 20.2392ZM79.77 13.3389C79.6758 12.6637 79.5031 12.0161 79.2519 11.3959C79.0007 10.7758 78.671 10.1988 78.2628 9.66495L79.5816 8.32256C80.1782 9.02908 80.6571 9.81018 81.0182 10.6659C81.3793 11.5215 81.607 12.4125 81.7012 13.3389H79.77Z" fill="#F79009"/>
</g>
</svg>
