<svg width="55" height="55" viewBox="0 0 55 55" fill="none" xmlns="http://www.w3.org/2000/svg">
<path d="M47.0747 28.6661L47.0709 26.0124L25.9944 8.76483L7.91895 25.9274V29.0303L29.6437 44.9136L47.0747 28.6661Z" fill="#617FA6"/>
<g filter="url(#filter0_d_1_1005)">
<path d="M40.9561 6.89682H14.5028C12.9344 6.89682 11.663 8.16825 11.663 9.73664V40.9365C11.663 42.5049 12.9344 43.7763 14.5028 43.7763H40.9561C42.5245 43.7763 43.7959 42.5049 43.7959 40.9365V9.73664C43.7959 8.16825 42.5245 6.89682 40.9561 6.89682Z" fill="#B8D4F8"/>
</g>
<path d="M36.4363 27.7088H16.1011C15.6664 27.7088 15.3141 28.0611 15.3141 28.4958V30.2091C15.3141 30.6437 15.6664 30.9961 16.1011 30.9961H36.4363C36.8709 30.9961 37.2232 30.6437 37.2232 30.2091V28.4958C37.2232 28.0611 36.8709 27.7088 36.4363 27.7088Z" fill="#436086"/>
<path d="M28.0045 25.7009H15.9527C15.6 25.7009 15.3141 25.9868 15.3141 26.3394C15.3141 26.6921 15.6 26.978 15.9527 26.978H28.0045C28.3572 26.978 28.643 26.6921 28.643 26.3394C28.643 25.9868 28.3572 25.7009 28.0045 25.7009Z" fill="#436086"/>
<path d="M36.4363 35.1962H16.1011C15.6664 35.1962 15.3141 35.5486 15.3141 35.9832V37.6965C15.3141 38.1312 15.6664 38.4835 16.1011 38.4835H36.4363C36.8709 38.4835 37.2232 38.1312 37.2232 37.6965V35.9832C37.2232 35.5486 36.8709 35.1962 36.4363 35.1962Z" fill="#436086"/>
<path d="M7.91895 25.9751L23.8022 34.5553L8.10107 45.8764L7.91895 25.9751Z" fill="#D8DBDF"/>
<path d="M47.0805 26.2495L30.7633 34.9623L46.8984 44.1406L47.0805 26.2495Z" fill="#D8DBDF"/>
<path d="M46.64 43.4358L28.1575 32.8747C27.1187 32.2811 25.8304 32.3531 24.8658 33.0591L8.31475 45.1649C8.18209 45.2615 8.10339 45.4167 8.10339 45.5808V50.0148C8.10339 50.2959 8.33049 50.5252 8.6138 50.5297L46.3814 50.885C46.667 50.8872 46.9008 50.6556 46.9008 50.3701V43.8855C46.9008 43.7011 46.8019 43.5302 46.6423 43.438L46.64 43.4358Z" fill="#EDEEF1"/>
<path d="M36.4363 13.287H16.1011C15.6664 13.287 15.3141 13.6394 15.3141 14.074V15.7874C15.3141 16.222 15.6664 16.5743 16.1011 16.5743H36.4363C36.8709 16.5743 37.2232 16.222 37.2232 15.7874V14.074C37.2232 13.6394 36.8709 13.287 36.4363 13.287Z" fill="#436086"/>
<path d="M28.0045 11.2768H15.9527C15.6 11.2768 15.3141 11.5627 15.3141 11.9154C15.3141 12.2681 15.6 12.554 15.9527 12.554H28.0045C28.3572 12.554 28.643 12.2681 28.643 11.9154C28.643 11.5627 28.3572 11.2768 28.0045 11.2768Z" fill="#436086"/>
<path d="M36.4363 20.7722H16.1011C15.6664 20.7722 15.3141 21.1245 15.3141 21.5592V23.2725C15.3141 23.7071 15.6664 24.0595 16.1011 24.0595H36.4363C36.8709 24.0595 37.2232 23.7071 37.2232 23.2725V21.5592C37.2232 21.1245 36.8709 20.7722 36.4363 20.7722Z" fill="#436086"/>
<path d="M28.0045 18.7643H15.9527C15.6 18.7643 15.3141 19.0501 15.3141 19.4028C15.3141 19.7555 15.6 20.0414 15.9527 20.0414H28.0045C28.3572 20.0414 28.643 19.7555 28.643 19.4028C28.643 19.0501 28.3572 18.7643 28.0045 18.7643Z" fill="#436086"/>
<circle cx="39.9105" cy="8.24027" r="4.12531" fill="#FF453A"/>
<mask id="mask0_1_1005" style="mask-type:alpha" maskUnits="userSpaceOnUse" x="36" y="4" width="8" height="8">
<rect x="36.537" y="4.86508" width="6.59376" height="6.59376" fill="#D9D9D9"/>
</mask>
<g mask="url(#mask0_1_1005)">
<path d="M39.5581 8.71146V6.2388H40.1076V8.71146H39.5581ZM39.5581 10.0852V9.53568H40.1076V10.0852H39.5581Z" fill="#F7F8F8"/>
</g>
<defs>
<filter id="filter0_d_1_1005" x="9.93331" y="6.89682" width="35.5922" height="40.3388" filterUnits="userSpaceOnUse" color-interpolation-filters="sRGB">
<feFlood flood-opacity="0" result="BackgroundImageFix"/>
<feColorMatrix in="SourceAlpha" type="matrix" values="0 0 0 0 0 0 0 0 0 0 0 0 0 0 0 0 0 0 127 0" result="hardAlpha"/>
<feOffset dy="1.72965"/>
<feGaussianBlur stdDeviation="0.864825"/>
<feComposite in2="hardAlpha" operator="out"/>
<feColorMatrix type="matrix" values="0 0 0 0 0 0 0 0 0 0 0 0 0 0 0 0 0 0 0.15 0"/>
<feBlend mode="normal" in2="BackgroundImageFix" result="effect1_dropShadow_1_1005"/>
<feBlend mode="normal" in="SourceGraphic" in2="effect1_dropShadow_1_1005" result="shape"/>
</filter>
</defs>
</svg>
