<svg width="55" height="55" viewBox="0 0 55 55" fill="none" xmlns="http://www.w3.org/2000/svg">
<path d="M35.6517 36.2889L13.6133 43.1339C12.6584 43.4307 11.7609 42.5332 12.0578 41.5783L18.9027 19.5399L35.6517 36.2889Z" fill="#FFBE69"/>
<path d="M36.3289 35.8976C37.935 34.2915 35.4237 29.1762 30.7197 24.4722C26.0158 19.7682 20.9004 17.2569 19.2943 18.863C17.6882 20.4691 20.1996 25.5844 24.9035 30.2884C29.6075 34.9924 34.7228 37.5037 36.3289 35.8976Z" fill="#FFDAA9"/>
<path d="M35.5549 35.1248C34.9256 35.7528 33.4918 35.5777 31.6187 34.6432C29.6486 33.6609 27.4117 31.9671 25.317 29.8738C23.2237 27.7805 21.5299 25.5422 20.5476 23.5721C19.6132 21.6991 19.438 20.2652 20.066 19.6372C20.694 19.0093 22.1292 19.1844 24.0022 20.1188C25.9724 21.1012 28.2093 22.795 30.3039 24.8882C32.3972 26.9815 34.091 29.2198 35.0734 31.19C36.0078 33.063 36.1829 34.4968 35.5549 35.1248Z" fill="#553000"/>
<path d="M32.4885 37.2713L28.2226 38.5957C27.2758 38.2577 26.3454 37.8514 25.4315 37.378C23.4436 36.3478 21.5309 34.9974 19.7468 33.3611C19.4568 33.0956 19.1407 32.7933 18.8028 32.4567C17.9313 31.5852 16.9257 30.4756 15.9187 29.143L16.7957 26.3205C18.3964 28.7285 20.1258 30.5194 21.3366 31.629C24.7433 34.7525 28.4907 36.6474 32.4885 37.2713Z" fill="#436086"/>
<path d="M25.3741 39.481L22.0111 40.5249C20.0889 39.507 18.2378 38.1881 16.507 36.6024C16.217 36.337 15.9009 36.0346 15.563 35.6981C15.1649 35.2999 14.7394 34.8539 14.2988 34.3587L15.1238 31.7003C16.2184 33.0562 17.2759 34.1192 18.0941 34.8703C20.3762 36.9636 22.8115 38.5042 25.3727 39.481H25.3741Z" fill="#436086"/>
<path d="M19.2864 41.3717L16.3353 42.2884C15.2805 41.5646 14.2543 40.7465 13.2693 39.8435C13.1051 39.6916 12.9313 39.5302 12.7507 39.355L13.5388 36.8171C14.0176 37.3179 14.4664 37.7502 14.8577 38.11C16.2778 39.4111 17.7555 40.5002 19.2878 41.3717H19.2864Z" fill="#436086"/>
<path d="M24.8234 22.334L23.7795 21.2901C25.4364 19.6332 26.3845 17.503 26.5952 14.961C26.7553 13.0264 26.4064 11.5666 26.4023 11.5529L27.8348 11.1985C27.8512 11.2656 28.2397 12.8663 28.0701 15.028C27.843 17.9107 26.7197 20.4377 24.8234 22.334Z" fill="#FFA9A4"/>
<path d="M33.1193 31.673L32.0754 30.629C34.1195 28.585 37.0104 27.5575 40.4363 27.656C42.9797 27.7299 44.9156 28.3894 44.9963 28.4181L44.5134 29.8123C44.4956 29.8054 42.6787 29.1897 40.3514 29.1295C37.3169 29.0502 34.8829 29.9053 33.1166 31.6716L33.1193 31.673Z" fill="#436086"/>
<path d="M28.0129 20.8426C28.5479 19.9533 29.2511 19.7207 29.7642 19.551C30.1993 19.4074 30.4606 19.3212 30.7137 18.9012C30.9668 18.4811 30.9203 18.2089 30.8423 17.7574C30.752 17.2238 30.6275 16.4946 31.1611 15.6053C31.696 14.716 32.3993 14.4834 32.9123 14.3137C33.3474 14.1701 33.6087 14.0839 33.8618 13.6638C34.1149 13.2438 34.0684 12.9716 33.9918 12.5201C33.9015 11.9865 33.777 11.2573 34.3119 10.368L35.5761 11.1286C35.323 11.5487 35.3695 11.8209 35.4461 12.2724C35.5364 12.806 35.661 13.5352 35.126 14.4245C34.591 15.3138 33.8878 15.5464 33.3748 15.7161C32.9397 15.8597 32.6784 15.9459 32.4253 16.366C32.1721 16.786 32.2187 17.0582 32.2966 17.5097C32.3869 18.0433 32.5114 18.7726 31.9779 19.6619C31.4429 20.5512 30.7397 20.7837 30.2266 20.9534C29.7915 21.0971 29.5302 21.1832 29.2771 21.6033L28.0129 20.8426Z" fill="#8C2620"/>
<path d="M34.0985 24.7993L33.3748 23.5133C34.3065 22.9893 35.0562 23.1398 35.6035 23.2506C36.0782 23.3463 36.3642 23.4038 36.8184 23.148C37.2726 22.8921 37.3725 22.6185 37.5381 22.1629C37.7282 21.6375 37.9896 20.9192 38.9213 20.3952C39.853 19.8712 40.6027 20.0217 41.1514 20.1325C41.6261 20.2283 41.9121 20.2858 42.3663 20.0299C42.8205 19.7741 42.9204 19.4991 43.086 19.0449C43.2761 18.5195 43.5374 17.8012 44.4692 17.2772L45.1929 18.5633C44.7373 18.8191 44.6388 19.0941 44.4733 19.5483C44.2831 20.0737 44.0218 20.792 43.0887 21.316C42.157 21.84 41.4072 21.6895 40.8586 21.5787C40.3838 21.4829 40.0979 21.4254 39.6437 21.6813C39.1894 21.9371 39.0896 22.2108 38.924 22.6664C38.7338 23.1917 38.4725 23.91 37.5408 24.434C36.6091 24.958 35.8593 24.8075 35.3121 24.6967C34.8373 24.6009 34.5514 24.5435 34.0971 24.7993H34.0985Z" fill="#13521D"/>
<path d="M43.4496 24.8965C43.8569 24.8965 44.187 24.5663 44.187 24.159C44.187 23.7518 43.8569 23.4216 43.4496 23.4216C43.0423 23.4216 42.7122 23.7518 42.7122 24.159C42.7122 24.5663 43.0423 24.8965 43.4496 24.8965Z" fill="#617FA6"/>
<path d="M40.1633 33.5062C40.5706 33.5062 40.9008 33.1761 40.9008 32.7688C40.9008 32.3615 40.5706 32.0313 40.1633 32.0313C39.7561 32.0313 39.4259 32.3615 39.4259 32.7688C39.4259 33.1761 39.7561 33.5062 40.1633 33.5062Z" fill="#FFA9A4"/>
<path d="M46.9473 27.2455C47.3546 27.2455 47.6847 26.9153 47.6847 26.508C47.6847 26.1008 47.3546 25.7706 46.9473 25.7706C46.54 25.7706 46.2098 26.1008 46.2098 26.508C46.2098 26.9153 46.54 27.2455 46.9473 27.2455Z" fill="#436086"/>
<path d="M40.947 17.0705C41.3543 17.0705 41.6845 16.7404 41.6845 16.3331C41.6845 15.9258 41.3543 15.5956 40.947 15.5956C40.5398 15.5956 40.2096 15.9258 40.2096 16.3331C40.2096 16.7404 40.5398 17.0705 40.947 17.0705Z" fill="#8C2620"/>
<path d="M30.093 11.6431C30.5003 11.6431 30.8305 11.313 30.8305 10.9057C30.8305 10.4984 30.5003 10.1683 30.093 10.1683C29.6858 10.1683 29.3556 10.4984 29.3556 10.9057C29.3556 11.313 29.6858 11.6431 30.093 11.6431Z" fill="#436086"/>
<path d="M35.2061 18.0091C35.6133 18.0091 35.9435 17.679 35.9435 17.2717C35.9435 16.8644 35.6133 16.5343 35.2061 16.5343C34.7988 16.5343 34.4686 16.8644 34.4686 17.2717C34.4686 17.679 34.7988 18.0091 35.2061 18.0091Z" fill="#FFBE69"/>
<path d="M29.6226 27.1402C30.0298 27.1402 30.36 26.81 30.36 26.4028C30.36 25.9955 30.0298 25.6653 29.6226 25.6653C29.2153 25.6653 28.8851 25.9955 28.8851 26.4028C28.8851 26.81 29.2153 27.1402 29.6226 27.1402Z" fill="#8C2620"/>
<path d="M21.9005 15.1387C22.3078 15.1387 22.638 14.8085 22.638 14.4013C22.638 13.994 22.3078 13.6638 21.9005 13.6638C21.4932 13.6638 21.1631 13.994 21.1631 14.4013C21.1631 14.8085 21.4932 15.1387 21.9005 15.1387Z" fill="#617FA6"/>
</svg>
