<svg width="146" height="132" viewBox="0 0 146 132" fill="none" xmlns="http://www.w3.org/2000/svg">
<path fill-rule="evenodd" clip-rule="evenodd" d="M39.7559 69.9905C46.5459 64.8045 44.1386 62.6448 44.2019 56.7188C44.2624 54.4985 45.4371 53.3871 46.5486 52.3994C54.7582 58.4493 63.7711 58.0779 69.1442 66.7194C73.0316 73.0169 72.1678 74.5603 76.058 76.9703C77.1694 77.6471 78.2176 78.3899 79.3924 78.9429L73.2187 102.031L66.4893 100.427C65.5016 100.179 50.7469 100.735 47.2282 94.7458C44.9447 90.9822 40.8702 73.325 39.7587 69.9905H39.7559Z" fill="#E2AC86"/>
<path fill-rule="evenodd" clip-rule="evenodd" d="M135.938 90.2423L90.686 78.1425L81.8602 111.107L135.938 125.617V90.2423Z" fill="#34466F"/>
<path fill-rule="evenodd" clip-rule="evenodd" d="M90.1936 79.9307L79.8849 77.1548L72.6602 104.194L82.9717 106.969L90.1936 79.9307Z" fill="#EDEEF1"/>
<path fill-rule="evenodd" clip-rule="evenodd" d="M135.938 107.96L86.2428 94.625L81.8602 111.107L135.938 125.617V107.96Z" fill="#34466F"/>
<path fill-rule="evenodd" clip-rule="evenodd" d="M86.551 93.4523L76.3028 90.6709L72.6602 104.193L82.9717 106.969L86.551 93.4523Z" fill="#B6BAC3"/>
<path d="M30.9411 48.1404C42.4722 48.1404 51.82 38.7927 51.82 27.2616C51.82 15.7306 42.4722 6.38278 30.9411 6.38278C19.4101 6.38278 10.0623 15.7306 10.0623 27.2616C10.0623 38.7927 19.4101 48.1404 30.9411 48.1404Z" stroke="#34466F" stroke-width="4.12679" stroke-miterlimit="10"/>
<path d="M48.9908 56.2445L35.5196 60.6528L47.8332 98.2818L61.3044 93.8735L48.9908 56.2445Z" fill="#34466F"/>
<path d="M43.5353 46.01L32.9349 49.6001L36.5876 60.3855L47.1881 56.7954L43.5353 46.01Z" fill="#D8DBDF"/>
<path d="M29.3479 32.1591L29.2434 31.7602C28.8968 30.3928 28.7372 29.2731 28.7647 28.401C28.7922 27.5288 28.971 26.7832 29.3012 26.1642C29.6313 25.5452 30.0688 24.951 30.6107 24.376C31.0124 23.9385 31.3618 23.5038 31.6562 23.0691C31.9506 22.6344 32.1597 22.1833 32.278 21.7155C32.3963 21.2478 32.3908 20.7609 32.2587 20.2519C32.1184 19.7127 31.868 19.2752 31.5049 18.9368C31.1417 18.5984 30.7153 18.3756 30.2256 18.2711C29.7359 18.1665 29.2296 18.1803 28.7069 18.3151C28.2007 18.4471 27.7495 18.6837 27.3533 19.0221C26.9599 19.3633 26.6738 19.787 26.4977 20.2932C26.3216 20.8022 26.3051 21.3772 26.4482 22.0237L21.6749 23.2645C21.309 21.6935 21.3475 20.3097 21.7932 19.1074C22.2389 17.9051 22.9789 16.901 24.0189 16.0921C25.0588 15.286 26.2831 14.6972 27.6945 14.3313C29.2462 13.9269 30.685 13.8279 32.0111 14.026C33.3372 14.2268 34.4652 14.722 35.3951 15.5144C36.325 16.3039 36.966 17.3824 37.3209 18.747C37.5575 19.6604 37.618 20.5078 37.5025 21.2919C37.3869 22.076 37.1283 22.8078 36.7322 23.4901C36.336 24.1724 35.827 24.8272 35.208 25.4544C34.688 25.9827 34.2808 26.4944 33.992 26.9951C33.7003 27.4958 33.5298 28.0323 33.4747 28.6045C33.4197 29.1768 33.4857 29.8453 33.6783 30.6129L33.7829 31.0118L29.3507 32.1646L29.3479 32.1591ZM33.6095 39.0453C32.831 39.2489 32.0936 39.1444 31.4003 38.7399C30.707 38.3328 30.2641 37.744 30.0715 36.9682C29.8652 36.2061 29.967 35.4798 30.3741 34.792C30.7813 34.1042 31.3756 33.6585 32.1569 33.4549C32.9383 33.2513 33.6206 33.3669 34.3221 33.7658C35.0264 34.1647 35.4804 34.748 35.6867 35.51C35.8133 36.0273 35.7995 36.5307 35.6509 37.026C35.4996 37.5184 35.2465 37.9476 34.8916 38.3108C34.5367 38.6739 34.1103 38.9188 33.6095 39.0508V39.0453Z" fill="#34466F"/>
<path fill-rule="evenodd" clip-rule="evenodd" d="M57.0251 71.7809C53.2587 62.6442 43.5057 62.9523 43.5663 56.8419C43.6268 54.4319 44.9253 53.1361 46.0974 52.0879C47.8856 53.3864 49.7399 54.4346 51.5915 55.359L57.0251 71.7809Z" fill="#E2AC86"/>
<path fill-rule="evenodd" clip-rule="evenodd" d="M46.6695 69.6209L37.8437 72.2759C36.1159 72.7711 35.1283 74.6226 35.6207 76.3504C36.1132 78.0176 37.9675 79.0053 39.6952 78.5101L48.5238 75.8552C50.2516 75.3627 51.2393 73.5084 50.6835 71.8412C50.1883 70.1134 48.4 69.1257 46.6695 69.6182V69.6209Z" fill="#E2AC86"/>
<path fill-rule="evenodd" clip-rule="evenodd" d="M41.4865 78.8825L39.635 79.3777C37.9072 79.8702 36.9195 81.6612 37.412 83.389C37.8439 85.1167 39.6955 86.1677 41.426 85.6725L50.2518 83.1414L52.1666 82.5856C53.8972 82.0932 54.8821 80.3021 54.3896 78.5716C53.8972 76.8439 52.1061 75.8562 50.3756 76.3487L41.4865 78.8798V78.8825Z" fill="#E2AC86"/>
<path fill-rule="evenodd" clip-rule="evenodd" d="M50.3121 84.008L41.4229 86.3548C39.6952 86.8473 38.6442 88.6383 39.1395 90.366C39.5714 92.0938 41.3624 93.1447 43.0902 92.6495L52.0426 90.2422C53.7703 89.8103 54.758 88.0193 54.3261 86.2915C53.8308 84.5638 52.0426 83.5128 50.3121 84.008Z" fill="#E2AC86"/>
<path fill-rule="evenodd" clip-rule="evenodd" d="M51.2997 91.23L43.4588 93.1448C41.9786 93.5162 41.0515 95.1174 41.4229 96.6003C41.7915 98.1437 43.335 99.0682 44.8811 98.6995L52.7193 96.7241C54.2022 96.3527 55.1266 94.8093 54.7579 93.2686C54.3865 91.7857 52.8458 90.8613 51.2997 91.23Z" fill="#E2AC86"/>
</svg>
