<svg width="52" height="50" viewBox="0 0 52 50" fill="none" xmlns="http://www.w3.org/2000/svg">
<path d="M46.7108 44.8823L5.97367 48.3143C2.88047 48.575 0.642153 45.4216 1.90807 42.5873L19.1673 3.96199C20.4768 1.03166 24.5012 0.692807 26.2826 3.36244L49.7611 38.5557C51.4839 41.1382 49.8046 44.6216 46.7114 44.8823H46.7108Z" fill="#F7F8F8"/>
<path d="M46.8407 46.423L6.10358 49.8551C4.10031 50.0239 2.2092 49.1458 1.0453 47.5064C-0.118604 45.8671 -0.323823 43.7922 0.496456 41.9566L17.7551 3.33067C18.6034 1.43239 20.346 0.195113 22.4179 0.020916C24.4892 -0.153878 26.4149 0.774976 27.5686 2.50383L51.0471 37.6971C52.1627 39.3698 52.3077 41.4495 51.4349 43.2607C50.5615 45.0718 48.8446 46.2536 46.8407 46.4225V46.423ZM22.6774 3.10278C21.745 3.18153 20.9605 3.73812 20.5787 4.59241L3.32001 43.2183C2.95073 44.0445 3.0432 44.9782 3.56698 45.7161C4.09077 46.4541 4.94207 46.849 5.84348 46.7732L46.5806 43.3412C47.4826 43.2654 48.2552 42.7333 48.6483 41.9178C49.0415 41.1029 48.9758 40.1663 48.4741 39.4134L24.9957 4.22015C24.4766 3.44163 23.6098 3.02403 22.6774 3.10278Z" fill="#8C2620"/>
<path d="M21.7228 38.9727C21.6787 38.4477 21.7312 37.9544 21.8815 37.4932C22.0312 37.0321 22.2639 36.624 22.5789 36.2691C22.8939 35.9141 23.2834 35.6248 23.7494 35.4017C24.2147 35.1785 24.7486 35.0407 25.3523 34.99C25.9555 34.9393 26.5091 34.9853 27.0138 35.1266C27.5185 35.2686 27.9551 35.4882 28.325 35.7853C28.6949 36.0829 28.992 36.4462 29.2169 36.8758C29.4418 37.3053 29.5766 37.7832 29.6208 38.3081C29.6649 38.8331 29.6118 39.3223 29.4615 39.7757C29.3105 40.2291 29.0785 40.6336 28.7635 40.9879C28.4485 41.3429 28.0548 41.6328 27.5811 41.8565C27.1074 42.0802 26.5687 42.218 25.9662 42.2687C25.3631 42.3194 24.813 42.2735 24.3173 42.1315C23.8209 41.9895 23.3878 41.7694 23.018 41.4717C22.6481 41.1746 22.351 40.8155 22.1267 40.3931C21.9024 39.9714 21.7682 39.4983 21.724 38.9733L21.7228 38.9727ZM28.0208 31.6033L22.1529 32.0979L19.6324 12.1183L27.1629 11.4835L28.0208 31.6033Z" fill="#8C2620"/>
</svg>
