<svg width="55" height="55" viewBox="0 0 55 55" fill="none" xmlns="http://www.w3.org/2000/svg">
<g filter="url(#filter0_d_1_956)">
<path d="M37.6963 12.3254H11.243C9.67463 12.3254 8.4032 13.5969 8.4032 15.1653V46.3651C8.4032 47.9335 9.67463 49.2049 11.243 49.2049H37.6963C39.2647 49.2049 40.5362 47.9335 40.5362 46.3651V15.1653C40.5362 13.5969 39.2647 12.3254 37.6963 12.3254Z" fill="#B8D4F8"/>
</g>
<path d="M33.6127 33.3253H13.1932C12.7568 33.3253 12.403 33.5396 12.403 33.8041V34.8465C12.403 35.1109 12.7568 35.3253 13.1932 35.3253H33.6127C34.0492 35.3253 34.403 35.1109 34.403 34.8465V33.8041C34.403 33.5396 34.0492 33.3253 33.6127 33.3253Z" fill="#436086"/>
<path d="M24.7447 31.1295H12.6929C12.3402 31.1295 12.0543 31.4154 12.0543 31.768C12.0543 32.1207 12.3402 32.4066 12.6929 32.4066H24.7447C25.0974 32.4066 25.3833 32.1207 25.3833 31.768C25.3833 31.4154 25.0974 31.1295 24.7447 31.1295Z" fill="#436086"/>
<path d="M33.1765 18.7157H12.8413C12.4067 18.7157 12.0543 19.068 12.0543 19.5026V21.216C12.0543 21.6506 12.4067 22.0029 12.8413 22.0029H33.1765C33.6111 22.0029 33.9635 21.6506 33.9635 21.216V19.5026C33.9635 19.068 33.6111 18.7157 33.1765 18.7157Z" fill="#436086"/>
<path d="M24.7447 16.7055H12.6929C12.3402 16.7055 12.0543 16.9914 12.0543 17.344C12.0543 17.6967 12.3402 17.9826 12.6929 17.9826H24.7447C25.0974 17.9826 25.3833 17.6967 25.3833 17.344C25.3833 16.9914 25.0974 16.7055 24.7447 16.7055Z" fill="#436086"/>
<path d="M33.6127 26.3256H13.1932C12.7568 26.3256 12.403 26.5399 12.403 26.8044V27.8468C12.403 28.1112 12.7568 28.3256 13.1932 28.3256H33.6127C34.0492 28.3256 34.403 28.1112 34.403 27.8468V26.8044C34.403 26.5399 34.0492 26.3256 33.6127 26.3256Z" fill="#436086"/>
<path d="M24.7447 24.1929H12.6929C12.3402 24.1929 12.0543 24.4788 12.0543 24.8315C12.0543 25.1841 12.3402 25.47 12.6929 25.47H24.7447C25.0974 25.47 25.3833 25.1841 25.3833 24.8315C25.3833 24.4788 25.0974 24.1929 24.7447 24.1929Z" fill="#436086"/>
<mask id="mask0_1_956" style="mask-type:alpha" maskUnits="userSpaceOnUse" x="30" y="39" width="10" height="10">
<rect x="30.9696" y="39.2654" width="8.85742" height="8.85742" fill="#D9D9D9"/>
</mask>
<g mask="url(#mask0_1_956)">
<path d="M34.07 45.5396L35.3986 44.211L36.7272 45.5396L37.2439 45.023L35.9153 43.6943L37.2439 42.3657L36.7272 41.849L35.3986 43.1777L34.07 41.849L33.5533 42.3657L34.8819 43.6943L33.5533 45.023L34.07 45.5396ZM35.3986 47.3849C34.8881 47.3849 34.4083 47.2881 33.9593 47.0943C33.5102 46.9005 33.1197 46.6376 32.7875 46.3054C32.4554 45.9733 32.1924 45.5827 31.9986 45.1337C31.8049 44.6846 31.708 44.2049 31.708 43.6943C31.708 43.1838 31.8049 42.704 31.9986 42.255C32.1924 41.806 32.4554 41.4154 32.7875 41.0832C33.1197 40.7511 33.5102 40.4881 33.9593 40.2944C34.4083 40.1006 34.8881 40.0037 35.3986 40.0037C35.9091 40.0037 36.3889 40.1006 36.8379 40.2944C37.287 40.4881 37.6775 40.7511 38.0097 41.0832C38.3418 41.4154 38.6048 41.806 38.7986 42.255C38.9923 42.704 39.0892 43.1838 39.0892 43.6943C39.0892 44.2049 38.9923 44.6846 38.7986 45.1337C38.6048 45.5827 38.3418 45.9733 38.0097 46.3054C37.6775 46.6376 37.287 46.9005 36.8379 47.0943C36.3889 47.2881 35.9091 47.3849 35.3986 47.3849ZM35.3986 46.6468C36.2228 46.6468 36.921 46.3608 37.493 45.7888C38.0651 45.2167 38.3511 44.5186 38.3511 43.6943C38.3511 42.8701 38.0651 42.172 37.493 41.5999C36.921 41.0279 36.2228 40.7419 35.3986 40.7419C34.5744 40.7419 33.8762 41.0279 33.3042 41.5999C32.7321 42.172 32.4461 42.8701 32.4461 43.6943C32.4461 44.5186 32.7321 45.2167 33.3042 45.7888C33.8762 46.3608 34.5744 46.6468 35.3986 46.6468Z" fill="#8C2620"/>
</g>
<path d="M46.5968 13.6545L43.293 13.7078" stroke="#8C2620" stroke-linecap="round"/>
<path d="M45.7494 7.96203L43.4286 10.3141" stroke="#8C2620" stroke-linecap="round"/>
<path d="M40.6522 5.79506L40.0929 10.2321" stroke="#8C2620" stroke-linecap="round"/>
<defs>
<filter id="filter0_d_1_956" x="6.67355" y="12.3254" width="35.5922" height="40.3388" filterUnits="userSpaceOnUse" color-interpolation-filters="sRGB">
<feFlood flood-opacity="0" result="BackgroundImageFix"/>
<feColorMatrix in="SourceAlpha" type="matrix" values="0 0 0 0 0 0 0 0 0 0 0 0 0 0 0 0 0 0 127 0" result="hardAlpha"/>
<feOffset dy="1.72965"/>
<feGaussianBlur stdDeviation="0.864825"/>
<feComposite in2="hardAlpha" operator="out"/>
<feColorMatrix type="matrix" values="0 0 0 0 0 0 0 0 0 0 0 0 0 0 0 0 0 0 0.15 0"/>
<feBlend mode="normal" in2="BackgroundImageFix" result="effect1_dropShadow_1_956"/>
<feBlend mode="normal" in="SourceGraphic" in2="effect1_dropShadow_1_956" result="shape"/>
</filter>
</defs>
</svg>
