<svg width="145" height="145" viewBox="0 0 145 145" fill="none" xmlns="http://www.w3.org/2000/svg">
<mask id="mask0_1_321" style="mask-type:luminance" maskUnits="userSpaceOnUse" x="0" y="0" width="145" height="145">
<path d="M72.2044 144.409C112.082 144.409 144.409 112.082 144.409 72.2046C144.409 32.3272 112.082 0.000183105 72.2044 0.000183105C32.327 0.000183105 0 32.3272 0 72.2046C0 112.082 32.327 144.409 72.2044 144.409Z" fill="white"/>
</mask>
<g mask="url(#mask0_1_321)">
<path d="M86.7043 88.0408C86.1405 89.7074 85.6608 91.4977 85.191 93.3522C84.7211 95.192 84.2662 97.096 83.737 98.9852C82.1989 104.509 80.0674 109.969 75.4285 113.668C73.4355 115.256 71.9914 117.437 71.4425 119.919C71.121 121.378 70.7254 123.164 70.2704 125.236C69.8055 127.338 69.2862 129.731 68.7125 132.343C68.4208 133.673 68.124 135.053 67.8125 136.487C64.4742 151.882 60.0085 172.935 56.873 189.498C56.1213 193.454 55.4438 197.158 54.875 200.467L36.1365 196.891L10.222 191.951C11.3793 185.438 12.8629 178.608 14.5741 171.635C17.6502 159.108 21.4582 146.136 25.4048 133.826C25.4542 133.663 25.5086 133.495 25.563 133.337C25.657 133.05 25.7509 132.768 25.84 132.481L26.107 131.65C26.4977 130.439 26.8587 129.331 27.1802 128.357C27.2445 128.169 27.2989 127.986 27.3632 127.803C27.3731 127.778 27.3829 127.753 27.3879 127.733C28.2435 125.127 29.104 122.565 29.9546 120.053C30.098 119.633 30.2415 119.217 30.3849 118.802C30.5233 118.386 30.6668 117.971 30.8102 117.56C30.8992 117.293 30.9932 117.031 31.0871 116.769C37.8031 97.2592 44.074 81.2209 46.893 74.1291L57.3527 76.5721L60.7997 77.3733L61.8927 77.6255L63.8115 78.0756L64.1973 78.1646L66.9371 78.8026L73.7075 80.3851L76.7094 81.0824L84.8695 82.9865L85.4135 84.4998L86.5708 87.6995L86.6895 88.0358L86.7043 88.0408Z" fill="#E2AC86"/>
<path d="M93.3363 77.7986C92.4709 78.3624 91.6252 78.9509 90.7696 79.5296L88.2326 81.305C87.0308 82.1655 85.7697 83.0063 84.6273 83.9558C84.2959 84.2327 83.9745 84.5196 83.6679 84.8163C83.1238 85.3356 82.6095 85.8994 82.11 86.4829C81.3632 87.3435 80.6462 88.2435 79.9389 89.1041C78.6284 90.7064 77.3228 92.3236 76.0518 93.9704C74.212 96.3542 70.7898 96.7943 68.406 94.9546C68.1934 94.7963 68.0005 94.6233 67.8175 94.4403C66.3685 92.9715 65.958 90.7806 66.5762 88.9013C66.8976 87.8974 67.5158 86.9824 68.4258 86.3049C70.4881 84.7223 72.5058 83.1002 74.5187 81.4633C75.4336 80.672 76.3881 79.9054 77.3722 79.1933C78.7471 78.1844 80.1912 77.2695 81.6896 76.5178C81.9567 76.3793 82.2436 76.2309 82.5452 76.0776C84.0437 75.3061 85.8439 74.3615 87.1891 73.6444C88.0941 73.1449 90.7696 71.9036 91.7043 71.4733C93.6973 70.5683 94.8843 71.1519 95.6459 72.591C96.4718 74.134 94.7804 76.8442 93.3363 77.7937V77.7986Z" fill="#D8A27D"/>
<path d="M67.4666 76.5275C71.0273 73.0359 74.8255 69.7966 78.6434 66.5919C81.1112 65.2418 83.7126 64.1192 86.2644 62.9026C88.7223 61.7701 93.7074 59.1935 95.4829 58.783C98.9694 57.9818 99.5382 62.6702 96.833 64.9599C94.7262 66.6661 92.57 68.2883 90.3939 69.8906C88.2229 71.4929 86.0221 73.0508 83.8214 74.5987L84.7758 73.8569C81.7591 77.477 78.7028 81.0625 75.4239 84.4452C69.9591 89.5539 62.3826 82.0269 67.4666 76.5275Z" fill="#D8A27D"/>
<path d="M58.3367 72.6455L69.2267 59.1343L69.7114 58.531C70.023 58.1452 70.4137 57.8386 70.8241 57.6309L93.1729 46.2711C96.0759 44.7825 97.6238 44.9012 98.4794 46.5826C99.241 48.0811 99.0679 50.2571 96.793 52.0474L76.828 67.2103L78.4254 65.7069L69.1723 80.3852C67.209 83.5008 63.0894 84.4355 59.9737 82.4722C56.6108 80.3852 55.8393 75.7067 58.3367 72.6405V72.6455Z" fill="#D8A27D"/>
<path d="M88.8509 48.0417L64.2717 70.1333L54.0345 99.6827C52.8179 103.194 48.9852 105.053 45.4738 103.837C41.9428 102.615 38.3029 99.6233 39.559 96.1071C39.559 96.1071 47.3136 66.8049 54.5884 61.2066L85.3495 41.0092C87.1101 39.8569 90.1417 38.4969 91.7836 39.8074C92.8815 40.6828 92.7282 42.5176 91.5264 44.7183C90.839 45.9745 89.9092 47.0823 88.8459 48.0417H88.8509Z" fill="#E2AC86"/>
<path d="M83.2526 138.015C83.2526 138.015 83.2526 138.025 83.2526 138.04C83.2278 138.436 82.9262 143.277 82.1645 149.909C82.2931 146.596 76.586 141.383 67.8275 136.492C65.0036 134.914 61.8533 133.367 58.4855 131.927C58.2827 131.838 58.0799 131.754 57.8772 131.67C42.9368 125.404 29.391 123.668 27.4079 127.739C28.2635 125.137 29.124 122.575 29.9746 120.063C30.118 119.643 30.2615 119.227 30.4049 118.812C30.5434 118.396 30.6868 117.981 30.8302 117.571C30.8599 117.378 30.9143 117.19 30.9884 117.012C31.0231 116.933 31.0577 116.853 31.1022 116.774C33.2584 112.848 46.1316 114.366 60.2263 120.286C63.8909 121.824 67.2835 123.51 70.2706 125.236C78.2873 129.86 83.4405 134.796 83.2427 138.015H83.2526Z" fill="#34466F"/>
<path d="M82.1591 149.914C82.1393 150.038 82.1294 150.166 82.1146 150.3C82.1146 150.3 82.1146 150.31 82.1146 150.32C78.0692 177.96 68.831 212.143 61.3732 210.526C54.1379 208.964 43.2726 206.377 33.1096 203.83C20.093 200.561 8.2139 197.356 6.56705 196.432C9.71239 183.618 19.9842 150.72 25.4193 133.846C25.4688 133.683 25.5232 133.515 25.5776 133.357C25.6715 133.07 25.7655 132.788 25.8545 132.501C25.9485 132.219 26.0375 131.942 26.1216 131.67C26.5123 130.459 26.8733 129.351 27.1948 128.377C27.259 128.189 27.3134 128.006 27.3777 127.823C27.3876 127.798 27.3975 127.773 27.4025 127.753C29.3856 123.678 42.9314 125.414 57.8717 131.68C58.0745 131.764 58.2773 131.848 58.48 131.937C61.8479 133.376 64.9982 134.924 67.8221 136.502C76.5806 141.398 82.2877 146.606 82.1591 149.919V149.914Z" fill="#B8D4F8"/>
<g style="mix-blend-mode:multiply">
<path d="M82.3772 103.288C80.9183 107.254 78.861 110.938 75.4337 113.668C73.4407 115.256 71.9966 117.437 71.4476 119.919C71.1262 121.378 70.7305 123.164 70.2756 125.236C78.2922 129.86 83.4454 134.796 83.2476 138.015C83.2476 138.015 83.2476 138.025 83.2476 138.04C83.2229 138.435 82.9212 143.277 82.1596 149.909C82.1398 150.033 82.1299 150.161 82.1151 150.295C82.1151 150.295 82.1151 150.305 82.1151 150.314C78.0697 177.955 68.8315 212.138 61.3736 210.521C54.1384 208.958 43.2731 206.372 33.1101 203.825C33.9063 201.886 34.9053 199.596 36.1516 196.901C38.2732 192.307 41.1119 186.521 44.915 179.285C55.0286 160.027 56.799 145.082 58.4855 131.937C58.9998 127.911 59.4993 124.059 60.2362 120.3C60.7109 117.862 61.2797 115.464 62.0116 113.09C62.9315 110.103 64.1827 107.566 65.6317 105.409L82.3822 103.298L82.3772 103.288Z" fill="#ECE1D4"/>
</g>
<path d="M80.4087 26.88L56.3389 29.5555C52.4122 29.9907 49.5784 33.5317 50.0136 37.4584L57.1351 101.537C57.5704 105.464 61.1113 108.298 65.0381 107.863L89.1078 105.187C93.0346 104.752 95.8683 101.211 95.4331 97.2842L88.3116 33.2053C87.8764 29.2786 84.3354 26.4448 80.4087 26.88Z" fill="#211F1F"/>
<path d="M80.2608 27.9672L56.5174 30.6081C53.1396 30.984 50.7015 34.0304 51.0774 37.4082L58.1791 101.289C58.555 104.667 61.6014 107.105 64.9792 106.729L88.7226 104.088C92.1003 103.713 94.5385 100.666 94.1626 97.2884L87.0609 33.4073C86.685 30.0295 83.6386 27.5914 80.2608 27.9672Z" fill="#F8FDFF"/>
<path d="M72.432 30.8606L64.7912 31.7063C63.9604 31.8002 63.357 32.547 63.446 33.3828L63.4609 33.4965C63.5548 34.3274 64.3016 34.9307 65.1374 34.8417L72.7782 33.996C73.609 33.9021 74.2124 33.1553 74.1234 32.3195L74.1085 32.2058C74.0146 31.3749 73.2678 30.7716 72.432 30.8606Z" fill="black"/>
<path d="M66.3186 79.8113C58.114 92.3185 61.9072 94.5637 58.1832 101.933C56.8578 104.395 53.9053 106.799 51.7244 108.431C44.6671 113.708 36.1114 108.485 39.2419 100.32C41.5465 94.717 45.1122 89.816 49.0192 85.2464C51.9222 81.834 55.0329 78.6244 58.3909 75.662C59.5482 74.6432 60.6609 73.7184 61.9121 72.7689C63.6035 71.4732 67.1989 70.4 68.3215 72.215C69.1573 73.5651 68.7122 75.9587 67.6242 77.7441L66.3186 79.8113Z" fill="#E2AC86"/>
</g>
<path d="M105.794 75.4935L101.704 71.2304C102.238 70.7161 104.889 67.9516 104.642 63.8221C104.355 59.0348 100.334 56.4483 100.161 56.3445L103.306 51.3396C103.999 51.7748 110.087 55.8153 110.542 63.4709C110.932 70.0237 107.006 74.3263 105.794 75.4885V75.4935Z" fill="#34466F"/>
<path d="M116.13 79.5289L112.035 75.2659C112.93 74.4054 117.381 69.7566 116.966 62.8181C116.496 54.9053 110.166 50.7016 109.444 50.2466L112.594 45.2467C113.578 45.8649 122.223 51.6066 122.866 62.467C123.42 71.7596 117.846 77.8772 116.13 79.5289Z" fill="#34466F"/>
<path d="M128.084 84.8355L123.994 80.5725C125.314 79.3065 131.867 72.4668 131.259 62.2247C130.566 50.5582 121.239 44.3665 120.181 43.6988L123.326 38.6989C124.651 39.5298 136.288 47.2596 137.159 61.8785C137.9 74.3956 130.403 82.62 128.084 84.8405V84.8355Z" fill="#34466F"/>
<g clip-path="url(#clip0_1_321)">
<path d="M69.671 53.801L64.9668 54.3201L59.7426 63.9532L69.1805 63.0167L71.3669 58.8504L66.7986 59.3179L69.671 53.801Z" fill="#34466F"/>
<path d="M65.15 62.2502L62.0579 68.1343L66.7691 67.5968L69.8363 61.7834L65.15 62.2502Z" fill="#34466F"/>
<path d="M69.1857 63.0162L63.6081 65.1851L64.4906 63.4838L69.1857 63.0162Z" fill="#202E45"/>
<path d="M80.1 53.392C77.1564 50.9571 73.8293 51.7839 73.4641 51.8811L71.689 55.6922C71.689 55.6922 75.0634 54.6349 77.1119 55.7223C78.1936 56.2966 79.0792 57.5485 79.1372 58.977C79.1621 59.5788 79.0346 60.1078 78.8449 60.5554C78.6822 60.9081 77.9495 62.2066 75.8256 62.7133C75.5695 62.7661 75.283 62.8165 74.9652 62.863C74.8759 62.8736 74.792 62.8854 74.7153 62.8983C74.4294 62.9364 74.1201 62.9714 73.7839 63.0028L70.1744 63.2852L68.2078 67.5068L76.1019 66.7265C78.3036 66.3352 80.2246 65.1921 81.4297 63.4837C82.9829 61.2811 82.8124 58.8396 82.7854 58.5216C82.7493 58.0938 82.4722 55.3528 80.1008 53.3911L80.1 53.392Z" fill="#34466F"/>
<path d="M60.2544 53.1417L72.3034 51.9506L70.2648 55.9278L60.624 56.8808L60.2544 53.1417Z" fill="#34466F"/>
</g>
<defs>
<clipPath id="clip0_1_321">
<rect width="28.97" height="19.4153" fill="white" transform="translate(56.1152 51.8039) rotate(-5.6453)"/>
</clipPath>
</defs>
</svg>
