<svg width="178" height="140" viewBox="0 0 178 140" fill="none" xmlns="http://www.w3.org/2000/svg">
<mask id="mask0_1_318" style="mask-type:luminance" maskUnits="userSpaceOnUse" x="12" y="0" width="141" height="140">
<path d="M82.2917 139.477C120.807 139.477 152.03 108.254 152.03 69.7384C152.03 31.223 120.807 0.000152588 82.2917 0.000152588C43.7763 0.000152588 12.5534 31.223 12.5534 69.7384C12.5534 108.254 43.7763 139.477 82.2917 139.477Z" fill="white"/>
</mask>
<g mask="url(#mask0_1_318)">
<path d="M97.3997 86.1144C96.8552 87.7241 96.3918 89.4532 95.9381 91.2445C95.4843 93.0214 95.0449 94.8603 94.5338 96.685C93.0482 102.02 90.9895 107.294 86.5091 110.867C84.5841 112.4 83.1893 114.506 82.6591 116.904C82.3487 118.313 81.9665 120.038 81.5271 122.039C81.0781 124.069 80.5765 126.381 80.0225 128.903C79.7406 130.188 79.454 131.521 79.1531 132.906C75.9289 147.775 71.6156 168.109 68.5873 184.106C67.8612 187.928 67.2069 191.505 66.6575 194.701L48.559 191.247L23.5297 186.475C24.6474 180.185 26.0804 173.588 27.7331 166.853C30.7041 154.754 34.3821 142.225 38.1938 130.336C38.2416 130.179 38.2941 130.016 38.3467 129.863C38.4374 129.586 38.5282 129.314 38.6142 129.037L38.8721 128.234C39.2494 127.064 39.5981 125.994 39.9086 125.053C39.9707 124.872 40.0232 124.695 40.0853 124.518C40.0949 124.494 40.1044 124.47 40.1092 124.451C40.9356 121.934 41.7667 119.46 42.5883 117.033C42.7268 116.627 42.8653 116.226 43.0038 115.825C43.1376 115.424 43.2761 115.022 43.4146 114.626C43.5006 114.368 43.5914 114.115 43.6821 113.862C50.1687 95.018 56.2255 79.5275 58.9481 72.6778L69.0506 75.0375L72.3799 75.8113L73.4355 76.0549L75.2888 76.4896L75.6614 76.5755L78.3077 77.1917L84.8468 78.7202L87.7462 79.3937L95.6276 81.2327L96.153 82.6944L97.2707 85.7848L97.3854 86.1096L97.3997 86.1144Z" fill="#E2AC86"/>
<path d="M103.806 76.2221C102.97 76.7666 102.153 77.3351 101.327 77.8939L98.8762 79.6087C97.7155 80.4398 96.4974 81.2519 95.394 82.169C95.074 82.4365 94.7635 82.7135 94.4674 83.0001C93.942 83.5016 93.4452 84.0462 92.9628 84.6098C92.2415 85.4409 91.5489 86.3103 90.8658 87.1414C89.6 88.689 88.339 90.251 87.1114 91.8416C85.3345 94.1439 82.0291 94.569 79.7268 92.7921C79.5214 92.6393 79.3351 92.4721 79.1584 92.2954C77.7589 90.8767 77.3624 88.7607 77.9595 86.9456C78.2699 85.9759 78.867 85.0922 79.7459 84.4379C81.7378 82.9093 83.6866 81.3426 85.6307 79.7616C86.5143 78.9973 87.4362 78.2569 88.3868 77.5691C89.7147 76.5947 91.1094 75.711 92.5567 74.985C92.8147 74.8512 93.0917 74.7079 93.3831 74.5599C94.8304 73.8147 96.5691 72.9024 97.8683 72.2098C98.7424 71.7273 101.327 70.5284 102.229 70.1129C104.154 69.2387 105.301 69.8024 106.036 71.1924C106.834 72.6827 105.2 75.3002 103.806 76.2173V76.2221Z" fill="#D8A27D"/>
<path d="M78.8195 74.9943C82.2587 71.622 85.9271 68.4934 89.6146 65.3981C91.9981 64.0941 94.5106 63.0098 96.9753 61.8348C99.3493 60.741 104.164 58.2524 105.879 57.8559C109.246 57.0821 109.796 61.6103 107.183 63.8219C105.148 65.4698 103.066 67.0365 100.964 68.5841C98.8669 70.1317 96.7413 71.6364 94.6157 73.1314L95.5376 72.415C92.6239 75.9114 89.6719 79.3745 86.5051 82.6416C81.2269 87.5759 73.9092 80.3059 78.8195 74.9943Z" fill="#D8A27D"/>
<path d="M70.0021 71.2449L80.5201 58.1953L80.9882 57.6125C81.2892 57.2399 81.6665 56.9438 82.063 56.7432L103.648 45.7713C106.452 44.3336 107.947 44.4482 108.774 46.0723C109.509 47.5196 109.342 49.6213 107.145 51.3504L87.8617 65.9954L89.4046 64.5434L80.4676 78.7203C78.5713 81.7295 74.5924 82.6323 71.5831 80.736C68.335 78.7203 67.5899 74.2016 70.0021 71.2401V71.2449Z" fill="#D8A27D"/>
<path d="M99.4735 47.4815L75.7338 68.8185L65.8462 97.3587C64.6712 100.75 60.9693 102.546 57.5779 101.371C54.1674 100.191 50.6519 97.3014 51.8651 93.9052C51.8651 93.9052 59.3548 65.6039 66.3812 60.1968L96.0916 40.6892C97.7921 39.5762 100.72 38.2626 102.306 39.5284C103.366 40.3739 103.218 42.146 102.058 44.2716C101.394 45.4849 100.496 46.5548 99.4687 47.4815H99.4735Z" fill="#E2AC86"/>
<path d="M94.0674 134.382C94.0674 134.382 94.0674 134.392 94.0674 134.406C94.0436 134.788 93.7522 139.464 93.0166 145.87C93.1408 142.669 87.6286 137.635 79.1692 132.911C76.4418 131.387 73.3991 129.892 70.1463 128.502C69.9504 128.416 69.7546 128.335 69.5587 128.254C55.1286 122.202 42.0455 120.525 40.1301 124.456C40.9565 121.944 41.7876 119.47 42.6092 117.043C42.7477 116.637 42.8862 116.236 43.0247 115.835C43.1585 115.433 43.297 115.032 43.4355 114.636C43.4642 114.449 43.5167 114.268 43.5884 114.096C43.6218 114.019 43.6553 113.943 43.6982 113.867C45.7808 110.074 58.2143 111.54 71.8276 117.258C75.3671 118.743 78.6438 120.372 81.5289 122.039C89.2717 126.505 94.249 131.273 94.0579 134.382H94.0674Z" fill="#34466F"/>
<path d="M93.0105 145.875C92.9913 145.994 92.9818 146.118 92.9675 146.247C92.9675 146.247 92.9675 146.257 92.9675 146.266C89.0602 172.963 80.1375 205.978 72.9344 204.417C65.9463 202.907 55.4521 200.409 45.6362 197.949C33.0642 194.792 21.5908 191.696 20.0002 190.803C23.0381 178.427 32.9591 146.653 38.2086 130.355C38.2563 130.198 38.3089 130.035 38.3614 129.883C38.4522 129.605 38.5429 129.333 38.6289 129.056C38.7197 128.784 38.8056 128.516 38.8868 128.254C39.2642 127.083 39.6129 126.013 39.9234 125.072C39.9855 124.891 40.038 124.714 40.1001 124.538C40.1097 124.514 40.1192 124.49 40.124 124.471C42.0394 120.535 55.1225 122.211 69.5526 128.263C69.7484 128.344 69.9443 128.426 70.1401 128.512C73.393 129.902 76.4357 131.397 79.1631 132.92C87.6225 137.649 93.1347 142.679 93.0105 145.879V145.875Z" fill="#B8D4F8"/>
<g style="mix-blend-mode:multiply">
<path d="M93.221 100.841C91.812 104.671 89.8249 108.23 86.5147 110.867C84.5897 112.4 83.195 114.506 82.6648 116.904C82.3543 118.313 81.9722 120.038 81.5327 122.039C89.2756 126.505 94.2528 131.272 94.0617 134.382C94.0617 134.382 94.0617 134.391 94.0617 134.406C94.0378 134.788 93.7465 139.464 93.0109 145.87C92.9918 145.989 92.9822 146.113 92.9679 146.242C92.9679 146.242 92.9679 146.252 92.9679 146.261C89.0606 172.958 80.138 205.973 72.9348 204.411C65.9467 202.902 55.4525 200.404 45.6366 197.944C46.4056 196.072 47.3705 193.86 48.5742 191.257C50.6234 186.819 53.3651 181.231 57.0383 174.243C66.8065 155.642 68.5165 141.208 70.1453 128.511C70.6421 124.623 71.1245 120.902 71.8362 117.272C72.2948 114.917 72.8441 112.601 73.551 110.308C74.4395 107.423 75.6479 104.972 77.0475 102.89L93.2258 100.85L93.221 100.841Z" fill="#ECE1D4"/>
</g>
<path d="M91.3194 27.0425L68.0717 29.6267C64.2791 30.047 61.5421 33.467 61.9625 37.2597L68.8408 99.15C69.2611 102.943 72.6812 105.68 76.4738 105.259L99.7215 102.675C103.514 102.255 106.251 98.8348 105.831 95.0421L98.9524 33.1518C98.5321 29.3592 95.112 26.6222 91.3194 27.0425Z" fill="#211F1F"/>
<path d="M91.1772 28.0926L68.2448 30.6433C64.9824 31.0064 62.6275 33.9488 62.9905 37.2112L69.8497 98.9105C70.2127 102.173 73.1551 104.528 76.4175 104.165L99.35 101.614C102.612 101.251 104.967 98.3086 104.604 95.0462L97.745 33.3469C97.382 30.0845 94.4396 27.7296 91.1772 28.0926Z" fill="#F5F5F5"/>
<path d="M83.6161 30.8872L76.2362 31.704C75.4338 31.7947 74.851 32.516 74.937 33.3232L74.9513 33.4331C75.0421 34.2356 75.7634 34.8183 76.5706 34.7323L83.9504 33.9155C84.7529 33.8248 85.3357 33.1035 85.2497 32.2963L85.2353 32.1864C85.1446 31.3839 84.4233 30.8012 83.6161 30.8872Z" fill="black"/>
<path d="M77.7107 78.166C69.7864 90.246 73.45 92.4146 69.8532 99.5317C68.5731 101.91 65.7215 104.232 63.615 105.808C56.7988 110.905 48.5353 105.861 51.5589 97.9745C53.7848 92.5627 57.2287 87.829 61.0022 83.4155C63.8061 80.1196 66.8105 77.0196 70.0538 74.1584C71.1716 73.1745 72.2463 72.2812 73.4548 71.3641C75.0884 70.1127 78.561 69.0761 79.6452 70.8291C80.4525 72.1332 80.0226 74.445 78.9717 76.1694L77.7107 78.166Z" fill="#E2AC86"/>
</g>
<path d="M114.734 72.915L110.784 68.7976C111.3 68.3008 113.86 65.6307 113.622 61.6422C113.344 57.0185 109.461 54.5203 109.294 54.42L112.332 49.5861C113.001 50.0064 118.881 53.9089 119.32 61.3031C119.697 67.6321 115.905 71.7877 114.734 72.9102V72.915Z" fill="#34466F"/>
<path d="M124.718 76.8127L120.763 72.6953C121.628 71.8641 125.927 67.3741 125.525 60.6726C125.072 53.03 118.958 48.9699 118.26 48.5305L121.303 43.7013C122.253 44.2984 130.603 49.844 131.224 60.3334C131.759 69.3087 126.376 75.2173 124.718 76.8127Z" fill="#34466F"/>
<path d="M136.265 81.938L132.314 77.8206C133.59 76.5978 139.919 69.9917 139.331 60.0994C138.662 48.8314 129.654 42.8511 128.632 42.2063L131.669 37.3771C132.95 38.1796 144.189 45.6454 145.03 59.765C145.746 71.8546 138.505 79.7981 136.265 81.9428V81.938Z" fill="#34466F"/>
<g clip-path="url(#clip0_1_318)">
<path d="M81.4562 52.2069L77.4898 52.6806L73.1536 60.8506L81.1121 59.9887L82.9259 56.4557L79.0737 56.8849L81.4562 52.2069Z" fill="#34466F"/>
<path d="M77.7046 59.3723L75.1394 64.3619L79.1116 63.8726L81.6563 58.9428L77.7046 59.3723Z" fill="#34466F"/>
<path d="M81.1165 59.9882L76.4255 61.8611L77.1574 60.4185L81.1165 59.9882Z" fill="#202E45"/>
<path d="M90.2552 51.7827C87.7524 49.7499 84.9505 50.4729 84.6431 50.5577L83.1738 53.7878C83.1738 53.7878 86.0138 52.8698 87.7509 53.772C88.6683 54.2486 89.4252 55.2985 89.4849 56.5037C89.5106 57.0114 89.4069 57.4589 89.2503 57.838C89.1156 58.137 88.507 59.2385 86.7183 59.6822C86.5025 59.7287 86.2611 59.7735 85.9932 59.8151C85.9179 59.8247 85.8472 59.8354 85.7826 59.8468C85.5416 59.8811 85.2808 59.913 84.9973 59.9421L81.953 60.2078L80.3251 63.7858L86.9819 63.0673C88.8372 62.7204 90.4498 61.7411 91.454 60.29C92.7482 58.4192 92.5858 56.3599 92.5606 56.0917C92.5269 55.7309 92.2722 53.4195 90.2559 51.7818L90.2552 51.7827Z" fill="#34466F"/>
<path d="M73.5036 51.7218L83.664 50.6252L81.9736 53.9974L73.8439 54.8748L73.5036 51.7218Z" fill="#34466F"/>
</g>
<path d="M21.2486 55.0532C32.9839 55.0532 42.4972 45.5399 42.4972 33.8046C42.4972 22.0694 32.9839 12.556 21.2486 12.556C9.51332 12.556 0 22.0694 0 33.8046C0 45.5399 9.51332 55.0532 21.2486 55.0532Z" fill="#F7F8F8"/>
<path d="M21.769 44.8346C22.165 44.6125 22.4838 44.2551 22.7928 43.9074C24.4058 42.0626 26.0477 40.1696 26.946 37.8998C27.7476 35.8619 27.9022 33.5535 27.2067 31.477C26.5113 29.4004 24.9467 27.6039 22.9184 26.7926C20.8901 25.9813 18.4272 26.2228 16.6983 27.5556C15.4524 28.5118 14.6314 29.9509 14.2451 31.477C13.0088 36.3738 15.491 40.8263 18.9391 44.1102C19.6249 44.7573 20.6004 45.2692 21.4986 44.9602C21.5952 44.9312 21.6821 44.8829 21.7787 44.8346H21.769Z" fill="#FFCA9E"/>
<path d="M13.3574 28.7436C13.3767 27.8357 13.425 26.8409 14.0141 26.1455C14.5453 25.5273 15.3856 25.3052 16.0521 24.8416C16.7765 24.3393 17.298 23.5667 18.0707 23.1417C19.1331 22.5429 20.4563 22.7167 21.6057 23.1127C22.755 23.5087 23.8271 24.1269 25.0055 24.4166C26.2417 24.716 27.7195 24.716 28.5115 25.7205C29.0813 26.4352 29.091 27.4397 28.9654 28.3476C28.8399 29.2555 28.5984 30.1634 28.7626 31.0616C28.8399 31.4673 28.9847 31.844 29.0523 32.2496C29.2455 33.5921 28.2217 34.983 26.8889 35.2051C26.2128 34.162 26.6184 32.5297 25.6236 31.7764C25.1214 31.39 24.4163 31.3997 23.8464 31.1292C23.0738 30.7622 22.6005 29.9316 21.8182 29.5549C21.1228 29.2169 20.2921 29.3134 19.5581 29.5646C18.824 29.8157 18.1576 30.2117 17.4332 30.4821C16.8441 30.6946 16.2163 30.8395 15.7333 31.2451C15.1731 31.7184 14.4391 34.4711 13.6471 33.8336C13.2704 33.5342 13.367 31.7667 13.3477 31.3224C13.3187 30.4628 13.338 29.5935 13.3477 28.7339L13.3574 28.7436Z" fill="#34466F"/>
<path d="M156.467 136.184C168.203 136.184 177.716 126.671 177.716 114.936C177.716 103.2 168.203 93.687 156.467 93.687C144.732 93.687 135.219 103.2 135.219 114.936C135.219 126.671 144.732 136.184 156.467 136.184Z" fill="#F5F5F5"/>
<path d="M156.824 102.853C158.185 102.611 159.625 102.679 160.967 103.094C163.778 103.954 166.009 106.243 166.975 109.005C167.873 111.584 167.689 114.472 166.695 117.012C165.999 118.78 164.888 120.422 163.304 121.465C159.576 123.918 154.09 122.102 152.004 118.326C151.27 116.983 150.864 115.486 150.584 113.979C150.188 111.893 149.995 109.691 150.739 107.701C151.734 105.016 154.158 103.336 156.833 102.863L156.824 102.853Z" fill="#34466F"/>
<path d="M153.675 115.631C153.935 115.757 154.196 113.342 154.216 113.216C154.331 112.106 154.158 109.701 155.297 109.034C155.751 108.764 156.35 108.909 156.785 109.199C157.219 109.488 157.557 109.913 157.944 110.271C159.286 111.517 161.17 111.942 162.879 112.608C163.7 112.927 164.511 113.332 165.072 114.018C165.96 115.119 165.931 116.655 165.564 117.959C165.352 118.722 164.927 119.359 164.589 120.084C164.183 120.953 163.835 121.841 163.372 122.682C162.425 124.401 160.938 125.734 158.832 125.521C157.374 125.376 156.041 124.42 155.384 123.116C154.621 121.61 153.636 120.209 152.844 118.693C152.506 118.055 152.187 117.399 151.878 116.742C151.617 116.201 151.202 115.641 151.646 115.042C152.284 114.192 153.153 115.361 153.684 115.631H153.675Z" fill="#FFCA9E"/>
<path d="M152.458 111.043C152.458 111.043 151.753 111.545 151.685 111.623C151.453 111.874 151.279 112.173 151.134 112.482C150.825 113.158 150.642 113.892 150.555 114.627C150.429 115.718 150.545 116.829 150.893 117.872C151.241 118.915 151.878 119.919 152.168 121.03C152.68 123.02 152.11 125.232 150.806 126.825C149.415 128.515 147.107 129.858 144.847 129.423C144.731 129.404 144.538 129.385 144.451 129.307C144.663 128.853 145.05 128.448 145.359 128.061C145.697 127.646 146.035 127.221 146.324 126.777C145.928 126.893 145.513 126.931 145.098 126.893C145.349 126.912 145.842 125.309 145.899 125.087C146.083 124.391 146.151 123.657 146.112 122.942C146.044 121.532 145.446 120.518 145.03 119.205C144.238 116.703 144.248 113.95 145.117 111.468C145.503 110.377 146.054 109.314 146.904 108.532C148.391 107.17 150.304 107.18 151.955 108.242C152.11 108.339 152.264 108.445 152.351 108.609C152.429 108.745 152.448 108.899 152.458 109.054C152.525 109.739 152.458 110.358 152.458 111.053V111.043Z" fill="#34466F"/>
<defs>
<clipPath id="clip0_1_318">
<rect width="24.4518" height="16.3872" fill="white" transform="translate(70 50.624) rotate(-6.15981)"/>
</clipPath>
</defs>
</svg>
